<svg width="407" height="47" viewBox="0 0 407 47" fill="none" xmlns="http://www.w3.org/2000/svg">
<rect width="111.29" height="47" rx="12" fill="#006067"/>
<path d="M42.1611 38.8669V8.78906H54.3537C56.6761 8.78906 58.7011 9.12892 60.4287 9.80865C62.1847 10.4884 63.5441 11.5929 64.5071 13.1223C65.4983 14.6517 65.994 16.7192 65.994 19.3248C65.994 21.7321 65.47 23.743 64.4221 25.3573C63.3742 26.9717 61.9439 28.1754 60.1313 28.9684C58.3187 29.7331 56.2513 30.1154 53.9289 30.1154H49.0433V38.8669H42.1611ZM49.0433 23.9979H53.9289C55.5432 23.9979 56.8177 23.6014 57.7523 22.8084C58.7152 22.0154 59.1967 20.8542 59.1967 19.3248C59.1967 17.937 58.7861 16.9033 57.9647 16.2235C57.1717 15.5155 55.8547 15.1615 54.0138 15.1615H49.0433V23.9979Z" fill="white"/>
<path d="M12 38.8669V8.78906H37.4472V38.8669H30.565V15.119H18.8822V38.8669H12Z" fill="white"/>
<path d="M84.209 8.10156C87.2393 8.10158 89.873 8.73923 92.1104 10.0137C94.3761 11.2882 96.1327 13.0721 97.3789 15.3662C98.6533 17.6319 99.29 20.3085 99.29 23.3955C99.29 26.4258 98.667 29.1162 97.4209 31.4668C96.1747 33.7892 94.4044 35.6161 92.1104 36.9473C89.8447 38.25 87.1543 38.9013 84.0391 38.9014C80.9521 38.9014 78.2755 38.2646 76.0098 36.9902C73.7724 35.6875 72.045 33.8886 70.8271 31.5947C69.6093 29.2724 69 26.5958 69 23.5654C69 20.4501 69.623 17.7452 70.8691 15.4512C72.1436 13.1288 73.9139 11.3301 76.1797 10.0557C78.4454 8.75291 81.122 8.10156 84.209 8.10156Z" fill="white"/>
<path fill-rule="evenodd" clip-rule="evenodd" d="M82.8185 18.1021C80.2998 16.6428 76.6021 17.0478 76.1405 21.2521C75.6777 25.4693 78.0511 29.932 79.3227 31.6407C79.612 32.029 80.08 32.2154 80.5647 32.2154C81.358 32.2154 82.0677 31.7178 82.3364 30.9696L82.7864 29.7211C82.8764 29.4716 83.0412 29.2559 83.2583 29.1034C83.4754 28.9509 83.7342 28.8691 83.9995 28.8691C84.2647 28.8691 84.5236 28.9509 84.7407 29.1034C84.9577 29.2559 85.1225 29.4716 85.2125 29.7211L85.6625 30.9696C85.9325 31.7178 86.6423 32.2154 87.4368 32.2154C87.9203 32.2154 88.3883 32.029 88.6763 31.6407C89.9491 29.932 92.3238 25.4693 91.8597 21.2521C91.3981 17.0478 87.7004 16.6428 85.1804 18.1021C84.3897 18.5611 83.6118 18.5611 82.8185 18.1021ZM85.8657 20.2866C85.9651 20.249 86.0709 20.2315 86.1771 20.2352C86.2833 20.2388 86.3878 20.2635 86.4844 20.3077C86.581 20.352 86.6678 20.415 86.7399 20.493C86.812 20.5711 86.8679 20.6627 86.9044 20.7625C86.9409 20.8623 86.9572 20.9683 86.9524 21.0745C86.9476 21.1806 86.9218 21.2848 86.8765 21.3809C86.8312 21.477 86.7673 21.5632 86.6885 21.6344C86.6096 21.7057 86.5174 21.7606 86.4173 21.796C85.498 22.1303 84.7201 22.3231 83.9307 22.3206C83.1361 22.3193 82.4007 22.1213 81.5611 21.7883C81.463 21.7493 81.3736 21.6913 81.2979 21.6178C81.2221 21.5442 81.1617 21.4564 81.1199 21.3595C81.0781 21.2625 81.0558 21.1583 81.0543 21.0527C81.0528 20.9472 81.0721 20.8424 81.1111 20.7443C81.1501 20.6462 81.2081 20.5567 81.2816 20.481C81.3552 20.4053 81.443 20.3448 81.5399 20.3031C81.6369 20.2613 81.7411 20.239 81.8466 20.2375C81.9522 20.236 82.057 20.2553 82.1551 20.2943C82.897 20.59 83.4215 20.7121 83.9345 20.7134C84.4527 20.7147 85.0261 20.5926 85.8657 20.2866Z" fill="#006067"/>
<path d="M385.177 39.1383V15.8828H397.105C398.091 15.8828 399.064 15.9564 400.021 16.1035C401.008 16.2505 401.908 16.5447 402.72 16.986C403.533 17.3979 404.186 18.0157 404.679 18.8394C405.202 19.6337 405.463 20.7222 405.463 22.1049C405.463 22.7521 405.361 23.3699 405.158 23.9582C404.955 24.5466 404.679 25.0614 404.331 25.5027C403.983 25.944 403.605 26.297 403.199 26.5618C404.244 27.0031 405.013 27.665 405.506 28.5476C406.029 29.4007 406.29 30.5039 406.29 31.8572C406.29 33.2398 406 34.4019 405.419 35.3433C404.868 36.2553 404.128 36.9907 403.199 37.5497C402.299 38.1086 401.327 38.5205 400.282 38.7853C399.267 39.0206 398.294 39.1383 397.366 39.1383H385.177ZM392.098 33.0928H396.974C397.496 33.0928 397.946 33.0192 398.323 32.8721C398.73 32.725 399.035 32.5191 399.238 32.2543C399.47 31.9895 399.586 31.6365 399.586 31.1952C399.586 30.8716 399.513 30.6069 399.368 30.4009C399.252 30.1656 399.064 29.9744 398.802 29.8273C398.57 29.6802 398.28 29.5772 397.932 29.5184C397.583 29.4595 397.206 29.4301 396.8 29.4301H392.098V33.0928ZM392.098 25.0173H396.147C396.553 25.0173 396.916 24.9879 397.235 24.9291C397.583 24.8702 397.874 24.7673 398.106 24.6202C398.367 24.4437 398.57 24.2377 398.715 24.0024C398.86 23.767 398.933 23.5023 398.933 23.2081C398.933 22.7668 398.817 22.4285 398.585 22.1931C398.382 21.9578 398.077 21.796 397.67 21.7077C397.293 21.6195 396.872 21.5753 396.408 21.5753H392.098V25.0173Z" fill="#006067"/>
<path d="M371.406 39.4873C369.113 39.4873 367.067 39.0166 365.268 38.0752C363.497 37.1338 362.104 35.7805 361.089 34.0154C360.073 32.2209 359.565 30.0733 359.565 27.5727C359.565 25.0133 360.073 22.8363 361.089 21.0418C362.133 19.2178 363.541 17.8351 365.311 16.8937C367.082 15.9229 369.084 15.4375 371.319 15.4375C373.582 15.4375 375.585 15.9376 377.326 16.9379C379.067 17.9087 380.446 19.3061 381.462 21.13C382.477 22.9246 382.985 25.1015 382.985 27.661C382.985 30.1616 382.492 32.2944 381.505 34.0595C380.547 35.8247 379.198 37.1779 377.457 38.1193C375.715 39.0313 373.698 39.4873 371.406 39.4873ZM371.275 33.0005C372.523 33.0005 373.495 32.7357 374.192 32.2062C374.917 31.6766 375.425 31 375.715 30.1763C376.035 29.3525 376.194 28.4994 376.194 27.6168C376.194 26.7343 376.035 25.8517 375.715 24.9692C375.425 24.0866 374.917 23.3658 374.192 22.8069C373.495 22.2185 372.523 21.9243 371.275 21.9243C370.056 21.9243 369.084 22.2185 368.358 22.8069C367.633 23.3658 367.111 24.0866 366.791 24.9692C366.472 25.8517 366.312 26.7343 366.312 27.6168C366.312 28.5288 366.472 29.3967 366.791 30.2204C367.111 31.0441 367.633 31.7207 368.358 32.2503C369.084 32.7504 370.056 33.0005 371.275 33.0005Z" fill="#006067"/>
<path d="M342.75 39.1383V15.8828H359.51V22.1049H349.672V39.1383H342.75Z" fill="#006067"/>
<path d="M328.979 39.4873C326.686 39.4873 324.64 39.0166 322.841 38.0752C321.071 37.1338 319.678 35.7805 318.662 34.0154C317.646 32.2209 317.138 30.0733 317.138 27.5727C317.138 25.0133 317.646 22.8363 318.662 21.0418C319.707 19.2178 321.114 17.8351 322.884 16.8937C324.655 15.9229 326.657 15.4375 328.892 15.4375C331.156 15.4375 333.158 15.9376 334.899 16.9379C336.641 17.9087 338.019 19.3061 339.035 21.13C340.051 22.9246 340.559 25.1015 340.559 27.661C340.559 30.1616 340.065 32.2944 339.078 34.0595C338.121 35.8247 336.771 37.1779 335.03 38.1193C333.289 39.0313 331.272 39.4873 328.979 39.4873ZM328.848 33.0005C330.096 33.0005 331.068 32.7357 331.765 32.2062C332.491 31.6766 332.998 31 333.289 30.1763C333.608 29.3525 333.767 28.4994 333.767 27.6168C333.767 26.7343 333.608 25.8517 333.289 24.9692C332.998 24.0866 332.491 23.3658 331.765 22.8069C331.068 22.2185 330.096 21.9243 328.848 21.9243C327.629 21.9243 326.657 22.2185 325.932 22.8069C325.206 23.3658 324.684 24.0866 324.365 24.9692C324.045 25.8517 323.886 26.7343 323.886 27.6168C323.886 28.5288 324.045 29.3967 324.365 30.2204C324.684 31.0441 325.206 31.7207 325.932 32.2503C326.657 32.7504 327.629 33.0005 328.848 33.0005Z" fill="#006067"/>
<path d="M292.289 39.1824V32.7397C292.985 32.7397 293.566 32.5632 294.03 32.2102C294.494 31.8277 294.871 31.357 295.162 30.7981C295.51 30.092 295.742 29.2977 295.858 28.4152C295.974 27.5326 296.047 26.6942 296.076 25.8999C296.134 24.6937 296.177 23.4287 296.206 22.1049C296.265 20.7516 296.294 19.516 296.294 18.3981C296.323 17.2508 296.337 16.4123 296.337 15.8828H314.882V39.1383H308.004V22.1049H302.562C302.562 23.0463 302.548 24.1053 302.519 25.2821C302.49 26.4294 302.432 27.6062 302.345 28.8123C302.257 29.9891 302.112 31.0923 301.909 32.1219C301.677 33.2398 301.372 34.2548 300.995 35.1668C300.647 36.0493 300.139 36.8142 299.471 37.4614C298.746 38.1086 297.817 38.5646 296.685 38.8294C295.554 39.0647 294.088 39.1824 292.289 39.1824Z" fill="#006067"/>
<path d="M280.558 39.4873C278.265 39.4873 276.219 39.0166 274.42 38.0752C272.649 37.1338 271.256 35.7805 270.24 34.0154C269.225 32.2209 268.717 30.0733 268.717 27.5727C268.717 25.0133 269.225 22.8363 270.24 21.0418C271.285 19.2178 272.693 17.8351 274.463 16.8937C276.233 15.9229 278.236 15.4375 280.471 15.4375C282.734 15.4375 284.737 15.9376 286.478 16.9379C288.219 17.9087 289.598 19.3061 290.614 21.13C291.629 22.9246 292.137 25.1015 292.137 27.661C292.137 30.1616 291.644 32.2944 290.657 34.0595C289.699 35.8247 288.35 37.1779 286.609 38.1193C284.867 39.0313 282.85 39.4873 280.558 39.4873ZM280.427 33.0005C281.675 33.0005 282.647 32.7357 283.344 32.2062C284.069 31.6766 284.577 31 284.867 30.1763C285.186 29.3525 285.346 28.4994 285.346 27.6168C285.346 26.7343 285.186 25.8517 284.867 24.9692C284.577 24.0866 284.069 23.3658 283.344 22.8069C282.647 22.2185 281.675 21.9243 280.427 21.9243C279.208 21.9243 278.236 22.2185 277.51 22.8069C276.785 23.3658 276.262 24.0866 275.943 24.9692C275.624 25.8517 275.464 26.7343 275.464 27.6168C275.464 28.5288 275.624 29.3967 275.943 30.2204C276.262 31.0441 276.785 31.7207 277.51 32.2503C278.236 32.7504 279.208 33.0005 280.427 33.0005Z" fill="#006067"/>
<path d="M254.113 39.1383V22.1049H246.799V15.8828H268.391V22.1049H260.991V39.1383H254.113Z" fill="#006067"/>
<path d="M232.041 39.4978C231.054 39.4978 230.097 39.3508 229.168 39.0566C228.268 38.7624 227.441 38.3211 226.687 37.7327C225.961 37.1444 225.381 36.4089 224.945 35.5263C224.539 34.6438 224.336 33.6141 224.336 32.4374C224.336 30.7605 224.67 29.4367 225.337 28.4658C226.034 27.4656 226.962 26.7301 228.123 26.2594C229.313 25.7593 230.663 25.4357 232.172 25.2886C233.681 25.1415 235.248 25.068 236.873 25.068H239.05C239.05 24.3325 238.905 23.7 238.615 23.1705C238.353 22.6115 237.947 22.1702 237.396 21.8466C236.844 21.523 236.162 21.3612 235.35 21.3612C234.769 21.3612 234.218 21.4495 233.695 21.626C233.202 21.7731 232.781 21.9937 232.433 22.2879C232.114 22.5527 231.896 22.891 231.78 23.3029H224.858C225.061 21.9202 225.482 20.7434 226.121 19.7726C226.788 18.7724 227.601 17.9634 228.559 17.3456C229.545 16.7278 230.648 16.2718 231.867 15.9776C233.086 15.654 234.334 15.4922 235.611 15.4922C237.874 15.4922 239.732 15.9188 241.183 16.7719C242.663 17.625 243.766 18.8753 244.491 20.5228C245.246 22.1702 245.623 24.2148 245.623 26.6566V39.1448H239.311L239.267 36.453C238.629 37.2179 237.918 37.8357 237.134 38.3064C236.38 38.7477 235.582 39.0566 234.74 39.2331C233.899 39.4096 232.999 39.4978 232.041 39.4978ZM234.131 34.0701C235.03 34.0701 235.857 33.8642 236.612 33.4523C237.367 33.0404 237.976 32.5109 238.44 31.8637C238.905 31.2165 239.137 30.5251 239.137 29.7897V29.5249H234.914C234.363 29.5249 233.855 29.5543 233.391 29.6132C232.955 29.672 232.564 29.7897 232.215 29.9662C231.896 30.1133 231.635 30.3339 231.432 30.6281C231.258 30.8929 231.17 31.2459 231.17 31.6872C231.17 32.1873 231.287 32.6286 231.519 33.011C231.78 33.364 232.128 33.6288 232.564 33.8053C233.028 33.9818 233.55 34.0701 234.131 34.0701Z" fill="#006067"/>
<path d="M194.341 39.1383V15.8828H202.351L208.271 25.4145L214.148 15.8828H222.027V39.1383H215.149V25.4145L209.229 34.8579H207.226L201.219 25.3703V39.1383H194.341Z" fill="#006067"/>
<path d="M180.57 39.4873C178.277 39.4873 176.231 39.0166 174.431 38.0752C172.661 37.1338 171.268 35.7805 170.252 34.0154C169.237 32.2209 168.729 30.0733 168.729 27.5727C168.729 25.0133 169.237 22.8363 170.252 21.0418C171.297 19.2178 172.705 17.8351 174.475 16.8937C176.245 15.9229 178.248 15.4375 180.482 15.4375C182.746 15.4375 184.749 15.9376 186.49 16.9379C188.231 17.9087 189.61 19.3061 190.625 21.13C191.641 22.9246 192.149 25.1015 192.149 27.661C192.149 30.1616 191.656 32.2944 190.669 34.0595C189.711 35.8247 188.362 37.1779 186.62 38.1193C184.879 39.0313 182.862 39.4873 180.57 39.4873ZM180.439 33.0005C181.687 33.0005 182.659 32.7357 183.356 32.2062C184.081 31.6766 184.589 31 184.879 30.1763C185.198 29.3525 185.358 28.4994 185.358 27.6168C185.358 26.7343 185.198 25.8517 184.879 24.9692C184.589 24.0866 184.081 23.3658 183.356 22.8069C182.659 22.2185 181.687 21.9243 180.439 21.9243C179.22 21.9243 178.248 22.2185 177.522 22.8069C176.797 23.3658 176.274 24.0866 175.955 24.9692C175.636 25.8517 175.476 26.7343 175.476 27.6168C175.476 28.5288 175.636 29.3967 175.955 30.2204C176.274 31.0441 176.797 31.7207 177.522 32.2503C178.248 32.7504 179.22 33.0005 180.439 33.0005Z" fill="#006067"/>
<path d="M154.125 39.1383V22.1049H146.811V15.8828H168.403V22.1049H161.003V39.1383H154.125Z" fill="#006067"/>
<path d="M132.396 39.4928C129.203 39.4928 126.475 38.8456 124.212 37.5512C121.948 36.2568 120.221 34.4181 119.031 32.0352C117.87 29.6523 117.29 26.8575 117.29 23.6509C117.29 20.3854 117.899 17.5465 119.118 15.1342C120.337 12.7218 122.064 10.8537 124.299 9.52989C126.562 8.17663 129.232 7.5 132.309 7.5C134.688 7.5 136.836 7.92657 138.751 8.77971C140.667 9.63285 142.219 10.8979 143.409 12.5747C144.628 14.2222 145.368 16.3109 145.63 18.8409H138.882C138.534 17.3994 137.823 16.2815 136.749 15.4872C135.704 14.6635 134.282 14.2516 132.483 14.2516C130.538 14.2516 128.986 14.7076 127.825 15.6196C126.664 16.5021 125.822 17.6347 125.3 19.0174C124.807 20.4001 124.56 21.8416 124.56 23.342C124.56 24.9012 124.821 26.4015 125.343 27.843C125.895 29.2845 126.751 30.4613 127.912 31.3733C129.102 32.2853 130.669 32.7412 132.613 32.7412C133.774 32.7412 134.79 32.5647 135.661 32.2117C136.56 31.8587 137.3 31.3439 137.881 30.6672C138.461 29.9906 138.868 29.1816 139.1 28.2402H146.021C145.789 30.6819 145.02 32.7412 143.714 34.4181C142.437 36.095 140.797 37.36 138.795 38.2131C136.821 39.0663 134.688 39.4928 132.396 39.4928Z" fill="#006067"/>
</svg>
