<svg width="35" height="35" viewBox="0 0 35 35" fill="none" xmlns="http://www.w3.org/2000/svg">
    <circle cx="17.5" cy="17.5" r="17.5" fill="white"/>
    <path d="M11.9876 9C12.3167 9.08516 12.5523 9.30338 12.7838 9.53756C13.589 10.3514 14.4021 11.1582 15.2112 11.9681C15.7276 12.4853 15.7293 13.104 15.2161 13.6185C14.9934 13.8416 14.7676 14.062 14.5471 14.2874C14.0162 14.8311 13.9106 15.5732 14.2712 16.2416C15.319 18.1829 16.8157 19.6772 18.756 20.7257C19.4241 21.0867 20.1662 20.9811 20.711 20.4511C20.9487 20.2196 21.1798 19.9814 21.4163 19.7481C21.8825 19.2877 22.5208 19.2815 22.9835 19.7415C23.8783 20.6303 24.7743 21.5183 25.6544 22.4213C25.8088 22.5796 25.8869 22.812 26 23.0103V23.3753C25.9073 23.555 25.847 23.7639 25.7165 23.9093C25.3359 24.3325 24.9314 24.7352 24.5281 25.1375C24.1546 25.5101 23.6959 25.7345 23.1898 25.868C22.3585 26.0867 21.5334 26.0099 20.7123 25.8108C19.5674 25.5331 18.5187 25.0297 17.5179 24.4216C15.5812 23.2436 13.9115 21.7529 12.4387 20.0378C11.3204 18.7351 10.3551 17.33 9.67642 15.7444C9.25988 14.7712 8.96932 13.7649 9.00259 12.6929C9.03098 11.7796 9.32154 10.9706 9.99625 10.3253C10.2842 10.0498 10.5729 9.77529 10.8537 9.49276C11.0746 9.27011 11.3102 9.07673 11.6225 9H11.9876Z" fill="#2146CE" />
</svg>