<svg width="20" height="20" viewBox="0 0 20 20" fill="none" xmlns="http://www.w3.org/2000/svg">
    <path d="M9.58333 0C14.8762 0 19.1667 4.29046 19.1667 9.58333C19.1667 14.8762 14.8762 19.1667 9.58333 19.1667C4.29046 19.1667 0 14.8762 0 9.58333C0 4.29046 4.29046 0 9.58333 0ZM9.58333 1.91667C7.55001 1.91667 5.59996 2.7244 4.16218 4.16218C2.7244 5.59996 1.91667 7.55001 1.91667 9.58333C1.91667 11.6167 2.7244 13.5667 4.16218 15.0045C5.59996 16.4423 7.55001 17.25 9.58333 17.25C11.6167 17.25 13.5667 16.4423 15.0045 15.0045C16.4423 13.5667 17.25 11.6167 17.25 9.58333C17.25 7.55001 16.4423 5.59996 15.0045 4.16218C13.5667 2.7244 11.6167 1.91667 9.58333 1.91667ZM9.58333 3.83333C9.81806 3.83336 10.0446 3.91954 10.22 4.07552C10.3954 4.2315 10.5075 4.44643 10.535 4.67954L10.5417 4.79167V9.18658L13.1359 11.7808C13.3077 11.9533 13.4075 12.1847 13.415 12.428C13.4224 12.6714 13.3369 12.9085 13.1759 13.0911C13.0149 13.2737 12.7903 13.3882 12.548 13.4113C12.3056 13.4344 12.0635 13.3644 11.8709 13.2154L11.7808 13.1359L8.90579 10.2609C8.75685 10.1118 8.66119 9.91779 8.63363 9.70887L8.625 9.58333V4.79167C8.625 4.5375 8.72597 4.29375 8.90569 4.11402C9.08541 3.9343 9.32917 3.83333 9.58333 3.83333Z" fill="white" />
</svg>