<svg width="13" height="13" viewBox="0 0 13 13" fill="none" xmlns="http://www.w3.org/2000/svg">
<path d="M7.99712 1.134C7.99061 1.10167 7.97466 1.072 7.95128 1.04874C7.9279 1.02548 7.89815 1.00968 7.86578 1.00333L7.83245 1H5.16712C5.12326 1.00017 5.08124 1.01763 5.05017 1.04858C5.01909 1.07953 5.00147 1.12148 5.00112 1.16533V2.4H8.00112V1.16667L7.99712 1.134ZM5.58178 8.00733C5.51244 8.01719 5.44667 8.04424 5.39045 8.086C5.33512 8.13 5.33378 8.164 5.33378 8.16733V8.834C5.33378 8.83867 5.33445 8.87067 5.38978 8.91467C5.47016 8.97318 5.56775 9.00321 5.66712 9H7.33378C7.45845 9 7.55378 8.95867 7.61045 8.914C7.66578 8.87 7.66712 8.838 7.66712 8.83333V8.16667C7.66712 8.162 7.66578 8.13 7.61045 8.086C7.53035 8.02739 7.433 7.99713 7.33378 8H5.66778L5.58178 8.00733ZM3.42378 3.4C2.16578 3.4 1.58378 3.68867 1.30912 4.00667C1.03378 4.326 0.950451 4.81067 1.02845 5.50133L1.02978 5.51067L1.16112 6.89067C2.18378 7.49733 3.19112 7.774 4.36112 7.93733C4.41778 7.684 4.56645 7.464 4.76512 7.30533C5.02278 7.10529 5.34025 6.99774 5.66645 7H7.33378C7.89245 7 8.51245 7.33733 8.64112 7.93667C9.80512 7.776 10.8231 7.502 11.8371 6.90867L11.9718 5.51067L11.9725 5.50133C12.0511 4.81067 11.9678 4.326 11.6925 4.00667C11.4178 3.68867 10.8351 3.4 9.57712 3.4H3.42378ZM9.00045 2.4H9.57712C10.9465 2.4 11.8931 2.70867 12.4498 3.35333C13.0045 3.99667 13.0538 4.84133 12.9658 5.61467L12.8351 6.97267C12.9018 7.13 12.8818 7.30733 12.7898 7.44467L12.5058 10.4053L12.5051 10.4127C12.4365 11.0353 12.2745 11.7287 11.6965 12.2433C11.1258 12.752 10.2471 13 8.96178 13H4.03912C2.75378 13 1.87512 12.752 1.30445 12.2433C0.726451 11.7287 0.564451 11.0353 0.495784 10.4127V10.406L0.205117 7.37733C0.157075 7.27398 0.145785 7.15731 0.173118 7.04667L0.0351175 5.61467L0.00845084 5.32133C-0.0328825 4.63333 0.0664507 3.91667 0.551784 3.35333C1.10845 2.70867 2.05512 2.4 3.42445 2.4H4.00112V1.16667C4.00085 1.0135 4.03081 0.861778 4.08926 0.7202C4.14772 0.578622 4.23352 0.449964 4.34177 0.341594C4.45001 0.233224 4.57857 0.14727 4.72009 0.0886545C4.8616 0.0300388 5.01328 -8.77105e-05 5.16645 1.91805e-07H7.83578L7.95112 0.00600023C8.23846 0.0354941 8.50469 0.170354 8.69847 0.384563C8.89224 0.598772 8.99982 0.877152 9.00045 1.166V2.4Z" fill="#006067"/>
</svg>
