<svg width="261" height="40" viewBox="0 0 261 40" fill="none" xmlns="http://www.w3.org/2000/svg">
<g clip-path="url(#clip0_4032_2278)">
<path d="M14.5863 12.8608H4.64481V29.6964H0V8.55017H19.2311V29.6964H14.5863V12.8608Z" fill="#FF4A37"/>
<path d="M23.75 8.54988H28.3948V10.8678C29.3455 9.97318 30.3641 9.28187 31.4506 8.79387C32.5371 8.30588 33.7594 8.06189 35.1176 8.06189C36.6387 8.06189 38.0376 8.34655 39.3143 8.91587C40.6181 9.45808 41.7316 10.2307 42.6552 11.2338C43.5787 12.2098 44.2986 13.3756 44.8147 14.731C45.3308 16.0595 45.5888 17.51 45.5888 19.0823C45.5888 20.709 45.3036 22.2001 44.7332 23.5556C44.1899 24.884 43.4429 26.0362 42.4922 27.0122C41.5416 27.9611 40.4008 28.7066 39.0698 29.2489C37.766 29.791 36.3671 30.0621 34.8731 30.0621C33.5421 30.0621 32.347 29.8589 31.2876 29.4522C30.2283 29.0455 29.264 28.4762 28.3948 27.7442V37.8293H23.75V8.54988ZM34.1805 25.7516C35.104 25.7516 35.9596 25.6025 36.7473 25.3042C37.5622 25.006 38.2684 24.5723 38.866 24.003C39.4636 23.4065 39.9254 22.7016 40.2513 21.8882C40.6044 21.0478 40.7811 20.099 40.7811 19.0417C40.7811 18.0657 40.6316 17.1711 40.3328 16.3577C40.034 15.5173 39.5994 14.8124 39.029 14.2431C38.4858 13.6466 37.8338 13.1857 37.0733 12.8605C36.3127 12.5352 35.4707 12.3725 34.5471 12.3725C33.1347 12.3725 31.8852 12.7113 30.7987 13.3891C29.7393 14.0669 28.9381 14.8802 28.3948 15.8291V22.2543C28.9381 23.393 29.7122 24.2605 30.7172 24.8569C31.7222 25.4534 32.8767 25.7516 34.1805 25.7516Z" fill="#FF4A37"/>
<path d="M48 19.0823C48 17.4828 48.2716 16.0189 48.8149 14.6905C49.3581 13.3349 50.1323 12.1691 51.1374 11.1932C52.1424 10.2172 53.3375 9.45808 54.7229 8.91587C56.1082 8.34655 57.6428 8.06189 59.3269 8.06189C60.9838 8.06189 62.5049 8.34655 63.8902 8.91587C65.3027 9.45808 66.5114 10.2172 67.5164 11.1932C68.5214 12.1691 69.2956 13.3349 69.8389 14.6905C70.4093 16.0189 70.6945 17.4828 70.6945 19.0823C70.6945 20.6819 70.4093 22.1594 69.8389 23.5149C69.2956 24.8434 68.5214 25.9955 67.5164 26.9715C66.5114 27.9475 65.3027 28.7066 63.8902 29.2489C62.5049 29.791 60.9838 30.0621 59.3269 30.0621C57.67 30.0621 56.1488 29.791 54.7635 29.2489C53.3782 28.7066 52.1831 27.9475 51.178 26.9715C50.173 25.9955 49.3853 24.8434 48.8149 23.5149C48.2716 22.1594 48 20.6819 48 19.0823ZM52.8078 19.0823C52.8078 20.0313 52.9573 20.9124 53.2561 21.7256C53.582 22.5389 54.0301 23.2438 54.6006 23.8402C55.171 24.4367 55.85 24.9111 56.6378 25.2636C57.4527 25.5888 58.349 25.7516 59.3269 25.7516C60.3047 25.7516 61.1875 25.6025 61.9752 25.3042C62.7901 24.9789 63.4828 24.5316 64.0532 23.9623C64.6236 23.3658 65.0718 22.661 65.3977 21.8477C65.7237 21.0343 65.8866 20.1125 65.8866 19.0823C65.8866 18.0521 65.7101 17.1304 65.357 16.317C65.0311 15.4766 64.5693 14.7717 63.9717 14.2024C63.3741 13.606 62.6814 13.1587 61.8937 12.8605C61.106 12.5352 60.2504 12.3725 59.3269 12.3725C58.4034 12.3725 57.5341 12.5352 56.7193 12.8605C55.9315 13.1587 55.2389 13.606 54.6414 14.2024C54.0709 14.7717 53.6227 15.4766 53.2967 16.317C52.9708 17.1304 52.8078 18.0521 52.8078 19.0823Z" fill="#FF4A37"/>
<path d="M71.9375 25.3858H74.3903C75.3443 24.1659 75.9848 22.7697 76.3118 21.1973C76.6389 19.6249 76.8024 17.8491 76.8024 15.8701V8.55017H93.8907V25.3858H96.8751V34.5357H92.5417V29.6964H76.2709V34.5357H71.9375V25.3858ZM89.2303 25.3858V12.8608H81.2175V18.2693C81.2175 19.5706 81.0404 20.872 80.686 22.1732C80.3318 23.4475 79.8413 24.5184 79.2144 25.3858H89.2303Z" fill="#3981F1"/>
<path d="M97.8203 19.0823C97.8203 17.4828 98.0928 16.0189 98.6379 14.6905C99.1829 13.3349 99.9597 12.1691 100.968 11.1932C101.976 10.2172 103.176 9.45808 104.566 8.91587C105.956 8.34655 107.495 8.06189 109.185 8.06189C110.848 8.06189 112.374 8.34655 113.764 8.91587C115.181 9.45808 116.394 10.2172 117.402 11.1932C118.411 12.1691 119.188 13.3349 119.733 14.6905C120.305 16.0189 120.591 17.4828 120.591 19.0823C120.591 20.6819 120.305 22.1594 119.733 23.5149C119.188 24.8434 118.411 25.9955 117.402 26.9715C116.394 27.9475 115.181 28.7066 113.764 29.2489C112.374 29.791 110.848 30.0621 109.185 30.0621C107.523 30.0621 105.996 29.791 104.607 29.2489C103.217 28.7066 102.017 27.9475 101.009 26.9715C100.001 25.9955 99.2102 24.8434 98.6379 23.5149C98.0928 22.1594 97.8203 20.6819 97.8203 19.0823ZM102.644 19.0823C102.644 20.0313 102.794 20.9124 103.094 21.7256C103.421 22.5389 103.871 23.2438 104.443 23.8402C105.015 24.4367 105.697 24.9111 106.487 25.2636C107.305 25.5888 108.204 25.7516 109.185 25.7516C110.166 25.7516 111.052 25.6025 111.843 25.3042C112.66 24.9789 113.355 24.5316 113.927 23.9623C114.5 23.3658 114.949 22.661 115.277 21.8477C115.604 21.0343 115.767 20.1125 115.767 19.0823C115.767 18.0521 115.59 17.1304 115.236 16.317C114.909 15.4766 114.445 14.7717 113.846 14.2024C113.246 13.606 112.551 13.1587 111.761 12.8605C110.97 12.5352 110.112 12.3725 109.185 12.3725C108.259 12.3725 107.386 12.5352 106.569 12.8605C105.779 13.1587 105.083 13.606 104.484 14.2024C103.912 14.7717 103.462 15.4766 103.135 16.317C102.808 17.1304 102.644 18.0521 102.644 19.0823Z" fill="#3981F1"/>
<path d="M123.477 8.55017H128.137V17.1307L137.335 8.55017H143.426L133.083 18.1067L143.795 29.6964H137.826L129.691 20.9939L128.137 22.4985V29.6964H123.477V8.55017Z" fill="#3981F1"/>
<path d="M145.258 8.55017H165.29V12.8608H157.604V29.6964H152.944V12.8608H145.258V8.55017Z" fill="#3981F1"/>
<path d="M166.312 19.0823C166.312 17.4828 166.585 16.0189 167.131 14.6905C167.676 13.3349 168.452 12.1691 169.46 11.1932C170.469 10.2172 171.668 9.45808 173.059 8.91587C174.448 8.34655 175.988 8.06189 177.677 8.06189C179.341 8.06189 180.866 8.34655 182.257 8.91587C183.674 9.45808 184.886 10.2172 185.895 11.1932C186.903 12.1691 187.681 13.3349 188.225 14.6905C188.798 16.0189 189.083 17.4828 189.083 19.0823C189.083 20.6819 188.798 22.1594 188.225 23.5149C187.681 24.8434 186.903 25.9955 185.895 26.9715C184.886 27.9475 183.674 28.7066 182.257 29.2489C180.866 29.791 179.341 30.0621 177.677 30.0621C176.015 30.0621 174.489 29.791 173.099 29.2489C171.709 28.7066 170.51 27.9475 169.501 26.9715C168.493 25.9955 167.703 24.8434 167.131 23.5149C166.585 22.1594 166.312 20.6819 166.312 19.0823ZM171.137 19.0823C171.137 20.0313 171.287 20.9124 171.586 21.7256C171.914 22.5389 172.363 23.2438 172.936 23.8402C173.508 24.4367 174.19 24.9111 174.98 25.2636C175.797 25.5888 176.696 25.7516 177.677 25.7516C178.659 25.7516 179.545 25.6025 180.335 25.3042C181.153 24.9789 181.847 24.5316 182.42 23.9623C182.992 23.3658 183.442 22.661 183.769 21.8477C184.096 21.0343 184.26 20.1125 184.26 19.0823C184.26 18.0521 184.082 17.1304 183.728 16.317C183.401 15.4766 182.938 14.7717 182.339 14.2024C181.738 13.606 181.044 13.1587 180.254 12.8605C179.464 12.5352 178.604 12.3725 177.677 12.3725C176.751 12.3725 175.879 12.5352 175.062 12.8605C174.272 13.1587 173.576 13.606 172.977 14.2024C172.404 14.7717 171.955 15.4766 171.627 16.317C171.301 17.1304 171.137 18.0521 171.137 19.0823Z" fill="#3981F1"/>
<path d="M191.938 8.54988H196.597V10.8678C197.551 9.97318 198.573 9.28187 199.663 8.79387C200.754 8.30588 201.98 8.06189 203.343 8.06189C204.869 8.06189 206.273 8.34655 207.554 8.91587C208.862 9.45808 209.979 10.2307 210.906 11.2338C211.832 12.2098 212.555 13.3756 213.072 14.731C213.591 16.0595 213.849 17.51 213.849 19.0823C213.849 20.709 213.564 22.2001 212.991 23.5556C212.446 24.884 211.697 26.0362 210.742 27.0122C209.788 27.9611 208.643 28.7066 207.309 29.2489C206 29.791 204.596 30.0621 203.098 30.0621C201.762 30.0621 200.563 29.8589 199.5 29.4522C198.437 29.0455 197.469 28.4762 196.597 27.7442V37.8293H191.938V8.54988ZM202.403 25.7516C203.33 25.7516 204.188 25.6025 204.978 25.3042C205.795 25.006 206.505 24.5723 207.104 24.003C207.703 23.4065 208.167 22.7016 208.494 21.8882C208.848 21.0478 209.025 20.099 209.025 19.0417C209.025 18.0657 208.875 17.1711 208.576 16.3577C208.276 15.5173 207.84 14.8124 207.268 14.2431C206.722 13.6466 206.068 13.1857 205.306 12.8605C204.542 12.5352 203.697 12.3725 202.77 12.3725C201.354 12.3725 200.1 12.7113 199.01 13.3891C197.947 14.0669 197.143 14.8802 196.597 15.8291V22.2543C197.143 23.393 197.92 24.2605 198.928 24.8569C199.936 25.4534 201.095 25.7516 202.403 25.7516Z" fill="#3981F1"/>
<path d="M216.156 19.0823C216.156 17.4828 216.429 16.0189 216.974 14.6905C217.519 13.3349 218.296 12.1691 219.304 11.1932C220.313 10.2172 221.512 9.45808 222.901 8.91587C224.291 8.34655 225.832 8.06189 227.521 8.06189C229.183 8.06189 230.71 8.34655 232.1 8.91587C233.517 9.45808 234.73 10.2172 235.738 11.1932C236.747 12.1691 237.523 13.3349 238.069 14.6905C238.641 16.0189 238.927 17.4828 238.927 19.0823C238.927 20.6819 238.641 22.1594 238.069 23.5149C237.523 24.8434 236.747 25.9955 235.738 26.9715C234.73 27.9475 233.517 28.7066 232.1 29.2489C230.71 29.791 229.183 30.0621 227.521 30.0621C225.859 30.0621 224.332 29.791 222.942 29.2489C221.553 28.7066 220.353 27.9475 219.345 26.9715C218.337 25.9955 217.547 24.8434 216.974 23.5149C216.429 22.1594 216.156 20.6819 216.156 19.0823ZM220.98 19.0823C220.98 20.0313 221.13 20.9124 221.43 21.7256C221.758 22.5389 222.206 23.2438 222.78 23.8402C223.351 24.4367 224.032 24.9111 224.824 25.2636C225.641 25.5888 226.54 25.7516 227.521 25.7516C228.502 25.7516 229.388 25.6025 230.178 25.3042C230.997 24.9789 231.691 24.5316 232.263 23.9623C232.836 23.3658 233.285 22.661 233.612 21.8477C233.94 21.0343 234.104 20.1125 234.104 19.0823C234.104 18.0521 233.926 17.1304 233.571 16.317C233.244 15.4766 232.781 14.7717 232.181 14.2024C231.582 13.606 230.887 13.1587 230.096 12.8605C229.306 12.5352 228.448 12.3725 227.521 12.3725C226.595 12.3725 225.723 12.5352 224.905 12.8605C224.114 13.1587 223.42 13.606 222.82 14.2024C222.247 14.7717 221.798 15.4766 221.471 16.317C221.144 17.1304 220.98 18.0521 220.98 19.0823Z" fill="#3981F1"/>
<path d="M241.828 8.55017H250.903C253.874 8.55017 256.109 8.97039 257.609 9.81082C259.107 10.6512 259.857 12.1017 259.857 14.162C259.857 15.138 259.639 15.9649 259.202 16.6426C258.767 17.3205 258.194 17.9305 257.486 18.4726C258.494 18.8523 259.243 19.4893 259.734 20.3839C260.224 21.2515 260.47 22.2546 260.47 23.3933C260.47 25.5079 259.721 27.0939 258.221 28.1511C256.723 29.1813 254.611 29.6964 251.885 29.6964H241.828V8.55017ZM246.489 20.9532V25.5079H251.436C252.825 25.5079 253.874 25.3316 254.583 24.9791C255.292 24.6268 255.646 24.0575 255.646 23.2712C255.646 22.4308 255.305 21.8343 254.624 21.482C253.97 21.1295 252.948 20.9532 251.558 20.9532H246.489ZM246.489 12.7388V16.9273H251.966C252.92 16.9273 253.671 16.7512 254.215 16.3987C254.761 16.0463 255.032 15.504 255.032 14.772C255.032 13.9045 254.665 13.3488 253.929 13.1048C253.22 12.8608 252.171 12.7388 250.781 12.7388H246.489Z" fill="#3981F1"/>
</g>
<defs>
<clipPath id="clip0_4032_2278">
<rect width="260.465" height="39.6899" fill="white"/>
</clipPath>
</defs>
</svg>
